<?xml version="1.0" encoding="utf-8"?>
<!-- Generator: Adobe Illustrator 27.5.0, SVG Export Plug-In . SVG Version: 6.00 Build 0)  -->
<svg version="1.1" id="レイヤー_1" xmlns="http://www.w3.org/2000/svg" xmlns:xlink="http://www.w3.org/1999/xlink" x="0px"
	 y="0px" viewBox="0 0 275.91 73.78" style="enable-background:new 0 0 275.91 73.78;" xml:space="preserve">
<style type="text/css">
	.st0{fill:#121212;}
</style>
<g>
	<g>
		<path class="st0" d="M4.66,11.32H0.79V0.75H4.6c2.99,0,4.99,2.09,4.99,5.28C9.59,9.18,7.66,11.32,4.66,11.32z M4.36,2.46H2.83
			v7.15h1.59c1.96,0,3.14-1.46,3.14-3.59C7.56,3.78,6.31,2.46,4.36,2.46z"/>
		<path class="st0" d="M19.75,11.32V0.75h7.14v1.69h-5.14v2.62h4.46v1.65h-4.46v2.91h5.39v1.69H19.75z"/>
		<path class="st0" d="M40.67,11.57c-2.11,0-3.54-1.06-4.11-2.75l1.52-1.02c0.45,1.25,1.49,2.05,2.59,2.05
			c1.19,0,1.84-0.54,1.84-1.36c0-0.76-0.46-1.2-1.57-1.61l-1.53-0.53C37.75,5.76,37,4.99,37,3.49c0-1.64,1.36-2.99,3.59-2.99
			c1.86,0,3.09,0.66,3.67,2.1l-1.48,1.06c-0.37-0.99-1.14-1.49-2.13-1.49c-1.14,0-1.72,0.55-1.72,1.23c0,0.57,0.39,0.95,1.34,1.26
			l1.63,0.53c1.67,0.57,2.66,1.49,2.66,3.12C44.56,10.36,43.16,11.57,40.67,11.57z"/>
		<path class="st0" d="M54.94,11.32V0.75H57v10.57H54.94z"/>
		<path class="st0" d="M72.35,11.57c-3.06,0-5.12-2.06-5.12-5.58c0-3.37,2.02-5.5,4.88-5.5c2.06,0,3.43,0.87,4.04,2.07l-1.26,1.19
			C74.4,2.82,73.52,2.2,72.31,2.2c-1.73,0-3.02,1.38-3.02,3.8c0,2.57,1.4,3.92,3.06,3.92c1.08,0,1.87-0.39,2.22-1.03V7.1h-2.56V5.42
			h4.31v4.23C75.6,10.91,74.25,11.57,72.35,11.57z"/>
		<path class="st0" d="M92.37,11.32l-3.13-6.1c-0.32-0.73-0.77-1.87-0.91-2.48h-0.04c0.07,0.66,0.26,2.44,0.26,3.67v4.91h-1.91V0.75
			h2.43l3.13,6.06c0.43,0.91,0.89,1.87,1,2.43l0.05,0.01c-0.12-0.72-0.28-2.52-0.28-3.43V0.75h1.9v10.57H92.37z"/>
		<path class="st0" d="M120.47,11.57c-2.11,0-3.54-1.06-4.11-2.75l1.52-1.02c0.45,1.25,1.49,2.05,2.59,2.05
			c1.19,0,1.84-0.54,1.84-1.36c0-0.76-0.46-1.2-1.57-1.61l-1.53-0.53c-1.65-0.6-2.41-1.37-2.41-2.87c0-1.64,1.36-2.99,3.59-2.99
			c1.86,0,3.09,0.66,3.67,2.1l-1.48,1.06c-0.37-0.99-1.14-1.49-2.13-1.49c-1.14,0-1.72,0.55-1.72,1.23c0,0.57,0.39,0.95,1.34,1.26
			l1.63,0.53c1.67,0.57,2.66,1.49,2.66,3.12C124.36,10.36,122.97,11.57,120.47,11.57z"/>
		<path class="st0" d="M140.21,2.44v8.88h-2.05V2.44h-2.97V0.75h8v1.69H140.21z"/>
		<path class="st0" d="M157.03,11.57c-2.45,0-4.13-1.49-4.13-3.81V0.75h2.03v6.84c0,1.52,0.81,2.28,2.1,2.28s2.15-0.76,2.15-2.28
			V0.75h1.98v7.02C161.16,10.1,159.41,11.57,157.03,11.57z"/>
		<path class="st0" d="M175.73,11.32h-3.86V0.75h3.81c2.99,0,4.99,2.09,4.99,5.28C180.67,9.18,178.74,11.32,175.73,11.32z
			 M175.43,2.46h-1.53v7.15h1.59c1.96,0,3.14-1.46,3.14-3.59C178.63,3.78,177.39,2.46,175.43,2.46z"/>
		<path class="st0" d="M190.89,11.32V0.75h2.06v10.57H190.89z"/>
		<path class="st0" d="M207.93,11.57c-2.94,0-4.76-2.29-4.76-5.57c0-3.21,1.82-5.51,4.76-5.51c2.93,0,4.73,2.32,4.73,5.51
			C212.66,9.28,210.86,11.57,207.93,11.57z M207.93,2.23c-1.52,0-2.71,1.45-2.71,3.78c0,2.34,1.12,3.83,2.71,3.83
			c1.53,0,2.68-1.49,2.68-3.83C210.61,3.67,209.51,2.23,207.93,2.23z"/>
	</g>
	<path class="st0" d="M8.14,30.13c-0.63,0.6-1.24,0.88-1.85,0.84c-0.21,0-0.41-0.01-0.62-0.07C5.22,30.9,5,30.65,5,30.13v-7.51
		c0-0.45,0.35-0.69,1.04-0.69c0.25,0,0.55,0.06,0.91,0.18c0.75,0.3,1.41,0.8,1.97,1.53c0.52,0.74,0.78,1.59,0.78,2.57
		C9.7,27.88,9.18,29.19,8.14,30.13z M1.28,17.83c-0.25,0.09-0.37,0.28-0.37,0.57v53.7c0.08,0.09,0.12,0.19,0.12,0.31
		c0,0.1,0.06,0.19,0.19,0.32c2.1,0,4.03-0.09,5.78-0.25c1.75-0.13,3.22-0.47,4.41-1.03c3.84-1.15,7.12-3.49,9.85-7.04
		c2.69-3.5,4.04-7.2,4.04-11.11c0-0.2,0.02-0.51,0.06-0.92c0.05-0.41,0.07-0.77,0.07-1.11c0-3.75-1.04-7.25-3.13-10.51
		c-2.13-3.2-4.94-5.64-8.45-7.29c-0.44-0.19-0.87-0.41-1.29-0.66c-0.35-0.16-0.52-0.39-0.52-0.68c0-0.11,0.02-0.23,0.06-0.35
		c1.13-1.44,1.69-3.23,1.69-5.38c0-1.79-0.45-3.36-1.35-4.72c-1.83-2.74-4.57-4.1-8.19-4.1c-0.65,0-1.34,0.06-2.07,0.18
		C1.71,17.77,1.41,17.78,1.28,17.83z M20.63,47c0.47,1.55,0.71,3.22,0.71,5.02c0,1.38-0.13,2.62-0.38,3.73
		c-0.3,1.16-0.72,2.22-1.29,3.16c-1.11,2.77-3,5.06-5.69,6.84c-2.69,1.8-5.49,2.7-8.38,2.7c0-0.08-0.11-0.22-0.34-0.41
		c-0.21-0.16-0.32-0.37-0.32-0.63V37.22c0-0.53,0.17-0.91,0.5-1.12c0.32-0.23,0.74-0.35,1.28-0.35c0.35,0,0.7,0.04,1.03,0.13
		c2.36,0.61,4.26,1.34,5.7,2.18c1.71,1.03,3.36,2.56,4.94,4.6C19.42,44,20.16,45.45,20.63,47z"/>
	<path class="st0" d="M70.64,18.52v53.42c0,0.28-0.22,0.46-0.67,0.6c-0.45,0.13-0.98,0.19-1.58,0.19c-0.52,0-0.97-0.06-1.34-0.19
		c-0.44-0.14-0.66-0.32-0.66-0.6l0.1-53.48c0-0.25,0.2-0.47,0.62-0.64c0.42-0.16,0.91-0.24,1.47-0.24c0.65,0,1.16,0.06,1.53,0.18
		C70.47,17.94,70.64,18.19,70.64,18.52z"/>
	<path class="st0" d="M127.68,30.62c-0.21,0.69-0.61,1.03-1.22,1.03h-5.63c-0.77,0-1.24-0.16-1.41-0.5
		c-0.21-0.36-0.31-0.74-0.31-1.16c0-0.29,0-0.8,0-1.53c0-1.97,0.21-3.43,0.62-4.41c0.65-1.46,1.86-2.2,3.66-2.2
		c1.83,0,3.09,0.67,3.78,1.98c0.46,0.89,0.69,2.21,0.69,3.97c0,0.43-0.02,1.02-0.07,1.75C127.76,30.06,127.72,30.42,127.68,30.62z
		 M115.7,22.71c-0.69,1.73-1.04,4.29-1.04,7.67c0,0.56-0.19,0.89-0.58,0.97c-0.39,0.08-1.03,0.21-1.93,0.38
		c-0.37,0.15-0.56,0.49-0.56,0.96c0,0.25,0.08,0.62,0.25,1.1c0.12,0.46,0.23,0.8,0.31,1.03c0.35,0.58,0.88,0.94,1.57,1.06
		c0.63,0.19,0.94,0.61,0.94,1.28V72.1c0,0.21,0.23,0.38,0.7,0.5c0.47,0.13,0.97,0.2,1.49,0.2c0.6,0,1.12-0.07,1.53-0.2
		c0.44-0.12,0.66-0.29,0.66-0.5V37.16c0-0.37,0.21-0.68,0.63-0.93c0.37-0.28,0.78-0.41,1.22-0.41h5.19c0.38,0,0.78,0.14,1.22,0.41
		c0.37,0.28,0.56,0.6,0.56,0.93V72.1c0,0.21,0.23,0.38,0.7,0.5c0.47,0.13,0.96,0.2,1.48,0.2c0.69,0,1.22-0.09,1.59-0.25
		c0.33-0.18,0.5-0.31,0.5-0.44V31.53c0-0.28,0-0.88,0-1.78c0-3.3-0.43-5.88-1.28-7.76c-1.35-2.95-3.82-4.41-7.41-4.41
		C119.62,17.58,117.03,19.29,115.7,22.71z"/>
	<path class="st0" d="M173.08,17.64h15.42c0.44,0,0.66,0.68,0.66,2.03c0,1.3-0.22,1.94-0.66,1.94h-4.22c-0.6,0-0.96,0.05-1.09,0.13
		c-0.33,0.25-0.5,0.82-0.5,1.72V72c0,0.53-0.65,0.79-1.94,0.79c-1.27,0-1.92-0.3-1.92-0.91V23.4c0-0.85-0.12-1.36-0.37-1.54
		c-0.32-0.16-0.72-0.24-1.22-0.24h-4.1c-0.27,0-0.49-0.21-0.66-0.63c-0.17-0.43-0.25-0.95-0.25-1.55
		C172.23,18.24,172.51,17.64,173.08,17.64z"/>
	<path class="st0" d="M247.58,17.6c-15.29,0-27.69,12.4-27.69,27.69c0,15.29,12.4,27.69,27.69,27.69c15.29,0,27.69-12.4,27.69-27.69
		C275.27,30,262.87,17.6,247.58,17.6z M247.58,68.65c-12.96,0-23.47-10.51-23.47-23.47s10.51-23.47,23.47-23.47
		c12.96,0,23.47,10.51,23.47,23.47S260.54,68.65,247.58,68.65z"/>
</g>
</svg>
