<?xml version="1.0" encoding="utf-8"?>
<!-- Generator: Adobe Illustrator 27.5.0, SVG Export Plug-In . SVG Version: 6.00 Build 0)  -->
<svg version="1.1" xmlns="http://www.w3.org/2000/svg" xmlns:xlink="http://www.w3.org/1999/xlink" x="0px" y="0px"
	 viewBox="0 0 319.44 319.28" style="enable-background:new 0 0 319.44 319.28;" xml:space="preserve">
<style type="text/css">
	.st0{fill:#06C755;}
	.st1{fill:#FFFFFF;}
</style>
<g id="BG">
</g>
<g id="LINE_LOGO_1_">
	<g>
		<path class="st0" d="M247.29,319.09H72.27c-39.84,0-72.14-32.3-72.14-72.14V71.93c0-39.84,32.3-72.14,72.14-72.14h175.02
			c39.84,0,72.14,32.3,72.14,72.14v175.02C319.43,286.79,287.13,319.09,247.29,319.09z"/>
		<g>
			<g>
				<g>
					<path class="st1" d="M266.2,144.4c0-47.63-47.75-86.39-106.45-86.39c-58.7,0-106.45,38.76-106.45,86.39
						c0,42.71,37.87,78.47,89.03,85.23c3.47,0.75,8.19,2.29,9.38,5.25c1.07,2.69,0.7,6.91,0.34,9.63c0,0-1.25,7.51-1.52,9.11
						c-0.46,2.69-2.14,10.53,9.22,5.74c11.36-4.79,61.31-36.1,83.64-61.81h0C258.81,180.63,266.2,163.46,266.2,144.4z"/>
				</g>
				<g>
					<path class="st0" d="M230.78,171.9h-29.87h-0.04c-1.12,0-2.03-0.91-2.03-2.03v-0.03v0v-46.38v0v-0.04
						c0-1.12,0.91-2.03,2.03-2.03h0.04h29.87c1.12,0,2.03,0.91,2.03,2.03v7.55c0,1.12-0.91,2.03-2.03,2.03h-20.33v7.84h20.33
						c1.12,0,2.03,0.91,2.03,2.03v7.55c0,1.12-0.91,2.03-2.03,2.03h-20.33v7.84h20.33c1.12,0,2.03,0.91,2.03,2.03v7.55
						C232.82,170.99,231.91,171.9,230.78,171.9z"/>
					<path class="st0" d="M120.15,171.9c1.12,0,2.03-0.91,2.03-2.03v-7.55c0-1.12-0.91-2.03-2.03-2.03H99.83v-36.88
						c0-1.12-0.91-2.03-2.03-2.03h-7.55c-1.12,0-2.03,0.91-2.03,2.03v46.42v0v0.03c0,1.12,0.91,2.03,2.03,2.03h0.04H120.15z"/>
					<path class="st0" d="M138.16,121.38h-7.55c-1.12,0-2.03,0.91-2.03,2.03v46.46c0,1.12,0.91,2.03,2.03,2.03h7.55
						c1.12,0,2.03-0.91,2.03-2.03v-46.46C140.19,122.29,139.28,121.38,138.16,121.38z"/>
					<path class="st0" d="M189.55,121.38H182c-1.12,0-2.03,0.91-2.03,2.03V151l-21.26-28.71c-0.05-0.07-0.1-0.14-0.16-0.21
						c0,0-0.01-0.01-0.01-0.01c-0.04-0.04-0.08-0.09-0.12-0.13c-0.01-0.01-0.03-0.02-0.04-0.03c-0.04-0.03-0.07-0.06-0.11-0.09
						c-0.02-0.01-0.04-0.03-0.06-0.04c-0.03-0.03-0.07-0.05-0.11-0.07c-0.02-0.01-0.04-0.03-0.06-0.04
						c-0.04-0.02-0.07-0.04-0.11-0.06c-0.02-0.01-0.04-0.02-0.06-0.03c-0.04-0.02-0.08-0.04-0.12-0.05
						c-0.02-0.01-0.04-0.02-0.07-0.02c-0.04-0.01-0.08-0.03-0.12-0.04c-0.02-0.01-0.05-0.01-0.07-0.02
						c-0.04-0.01-0.08-0.02-0.12-0.03c-0.03-0.01-0.06-0.01-0.09-0.01c-0.04-0.01-0.07-0.01-0.11-0.01c-0.04,0-0.07,0-0.11-0.01
						c-0.02,0-0.05,0-0.07,0h-7.51c-1.12,0-2.03,0.91-2.03,2.03v46.46c0,1.12,0.91,2.03,2.03,2.03h7.55c1.12,0,2.03-0.91,2.03-2.03
						v-27.59l21.28,28.74c0.15,0.21,0.33,0.38,0.52,0.51c0.01,0.01,0.02,0.01,0.02,0.02c0.04,0.03,0.08,0.05,0.13,0.08
						c0.02,0.01,0.04,0.02,0.06,0.03c0.03,0.02,0.07,0.03,0.1,0.05c0.03,0.02,0.07,0.03,0.1,0.04c0.02,0.01,0.04,0.02,0.06,0.02
						c0.05,0.02,0.09,0.03,0.14,0.04c0.01,0,0.02,0.01,0.03,0.01c0.17,0.04,0.35,0.07,0.53,0.07h7.51c1.12,0,2.03-0.91,2.03-2.03
						v-46.46C191.59,122.29,190.68,121.38,189.55,121.38z"/>
				</g>
			</g>
		</g>
	</g>
</g>
</svg>
