<?xml version="1.0" encoding="utf-8"?>
<!-- Generator: Adobe Illustrator 27.5.0, SVG Export Plug-In . SVG Version: 6.00 Build 0)  -->
<svg version="1.1" id="レイヤー_1" xmlns="http://www.w3.org/2000/svg" xmlns:xlink="http://www.w3.org/1999/xlink" x="0px"
	 y="0px" viewBox="0 0 240.72 233.58" style="enable-background:new 0 0 240.72 233.58;" xml:space="preserve">
<g>
	<path d="M94.09,143.54c1.07,0.03,5.76-11.78,16.01-17.85c13.26-7.85,16.51-14.38,18.9-14.69c1.77-0.23,18.74,11.85,30.78,17.65
		c26.08,12.58,77.55,7.76,78.71,6.69c1.16-1.07,2.95-21.83,0.71-38.42c-4.29-31.78-35.35-82.31-91.1-93.65
		C82.6-10.04,42.12,27.05,26.08,46.96c-22.37,27.76-30,59.36-23.19,92.74c6.81,33.38,26.16,61.55,63.71,80.36
		c37.55,18.82,84.64,17.42,124.29-8.93c32.1-21.33,39.24-47.88,39.3-48.57c0.06-0.69-10.97,16.56-26.63,21.14
		c-10.26,3-19.67,2.91-34.7-0.45c-15.26-3.41-27.89,3.36-35.04,10.46c-6.04,5.99-9.27,11.1-9.82,10.67
		c-0.55-0.43,2.6-13.61-1.11-24.36c-5.36-15.53-25.81-21-37.54-35.28c-11.86-14.44-8.01-39.52-7.37-41.3
		c0.65-1.79-1.22-0.58-2.65,0.95c-1.43,1.53-17.3,18.16-16.7,45.15c0.82,36.6,25.65,55.47,26.32,56.94
		c0.66,1.47-16.58-7.97-28.01-25.15c-13.23-19.88-14.11-49.82-4.11-66.31c10-16.48,16.66-19.03,17.57-19.41
		c0.9-0.38-2.66,4.46-2.3,5.27c0.28,0.64,9.45-1.02,16.47-1.92c7.01-0.9,15.02-2.33,14.89-1.98c-0.13,0.35-7.06,6.49-9.42,17.15
		C86.44,130.39,93.01,143.51,94.09,143.54z M229.15,131.48c-2.4,2.21-29.64,9.06-63.6-3.45c-15.4-5.67-31.66-18.26-40.09-23.97
		c-7.93-5.37-11.3-7.45-11.1-8.46c0.2-1.01,3.28-1.28,7.59-2.29c3.56-0.83,6.9-2.43,11.02,0c3.88,2.29,18.08,19.4,43.52,27.02
		c26.02,7.8,50.35,4.65,51.89,4.74C231.21,125.25,231.4,129.4,229.15,131.48z M195.31,91.22c14.42,5.59,24.3,5.68,25.31,6.09
		c1.02,0.41,2.34,2.8,3.93,5.65c1.58,2.85,3.34,6.49,2.77,7.1c-1.17,1.25-25.27,2.21-39.46-3.74
		c-19.13-8.02-31.19-23.16-31.51-24.67s2.93-2.98,5.94-4.78c2.3-1.37,3.17-2.68,5.03-2.17C169.38,75.27,180.9,85.63,195.31,91.22z
		 M172.24,70.9c-0.05-1.64,1.03-3.28,4.19-6.64c2.14-2.27,4.01-3.99,5.32-4c2.14-0.03,12.67,6.72,23.69,17.79
		c10.96,11.01,13.4,14.95,12.74,15.97c-0.65,1.02-14.15,0.9-27.4-6.17C177.55,80.78,172.27,71.84,172.24,70.9z M183.42,106.12
		c24.48,11.06,43.42,7.32,44.89,7.56c1.47,0.24,3.09,7.5,0.56,8.67c-2.53,1.17-26.89,1-44.12-1.89
		c-17.23-2.88-24.29-9.12-33.24-16.65s-13.77-13.17-13.9-14.31c-0.14-1.14,4.43-2.51,7.79-3.78c2.43-0.92,5.36-2.38,7.17-1.73
		C154.37,84.66,165.62,98.08,183.42,106.12z M61.24,191.41c19.39,18.7,41.68,26.99,42.02,26.6c0.7-0.79-16.41-12.6-27.11-27.27
		c-10.7-14.67-17.65-33.94-14.64-53.78c2.18-14.31,10.59-23.55,11.06-23.27c0.47,0.28-2.25,21.39,7.87,32.14
		c12.46,13.23,35.51,21.15,39.67,34.8c4.09,13.4-0.69,36.15,0.51,36.06c0,0,9.76-22.2,29.89-29.73c18.91-7.07,22.01,3.73,44.63,2.31
		c14.28-0.9,17.6-4.27,18.12-3.89c0.52,0.38-14.45,21.58-39.29,31.76c-24.84,10.19-64.43,20.39-107.47-0.23
		c-43.03-20.63-60.78-61.58-61.35-92.9C4.59,92.69,20.31,41.88,58.92,19.74s94.23-26.86,139.26,11.88
		c45.03,38.74,39.42,82.7,39.4,83.42c-0.02,0.72-6.12-15.32-17.54-28.78c-11.41-13.46-45.09-52.54-109.06-49.81
		c-67.46,2.88-85.64,51.15-85.22,79.61C26.12,139.79,37.54,168.55,61.24,191.41z M39.08,154.73c-0.99-0.63-14.66-24.88-5.1-57.43
		c6.16-20.96,23.57-35.16,41.6-39.52c18.03-4.36,33.27-0.05,34.39,1.4c1.12,1.44-1.82,2.07-6.71,5.1c-4.89,3.04-7.82,5.36-9.69,5.82
		c-3.28,0.8-30.29-5.38-47.75,25.19C30.35,122.36,40.06,155.37,39.08,154.73z M88.71,53.83c-29.98,2.47-41.35,15.73-42,15.39
		C46.06,68.88,57.96,49.79,87.38,45c38-6.19,48.61,4.94,48.82,5.66c0.56,1.89-5.19,2.4-9.59,3.35c-4.41,0.96-9.81,3.17-12.68,3.01
		C110.7,56.83,104.36,52.54,88.71,53.83z M127.38,44.05c-11.42-3.87-25.76-3.47-25.54-4.05c0.22-0.58,18.79-1.77,35.22,1.75
		c12.13,2.6,24.87,6.65,24.95,7.73c0.08,1.04-15.69,1.37-18.32,1.05C141.07,50.22,134.61,46.5,127.38,44.05z M49.51,112.42
		c-10.02,20.17-5.23,40.62-6.14,40.97c-0.9,0.35-5.09-14.61-2.46-35.8c1.79-14.42,6.95-28.14,22.35-37.19
		c15.38-9.03,25.72-4.72,23.86-3.03c-1.17,1.06-6.96,7.44-9.16,9.33C72.57,91.31,58.42,94.48,49.51,112.42z M75.57,94.75
		c0.28-1.26,22.86-29.34,47.23-37.73c19.67-6.77,43.69-4.1,48.12-3.08c1.83,0.42,6.01,1.88,6.69,3.71
		c0.69,1.83-14.06,19.73-36.02,27.93C123.5,92.32,75.29,96,75.57,94.75z M91.73,113.95c3.01-10.4,10.25-15.46,12.8-16.64
		s5.61,0.76,8.63,2.39c2.74,1.48,4.62,2.74,6.83,4.12c2.21,1.38,2.34,2.02,0.9,8.09c-1.44,6.07-8.72,9.29-13.52,12.25
		c-8.08,4.97-11.15,12.21-12.46,11.83C93.58,135.62,88.71,124.34,91.73,113.95z"/>
</g>
</svg>
